<svg viewBox="0 0 57.3 70.6" version="1.1" xmlns="http://www.w3.org/2000/svg" xmlns:xlink="http://www.w3.org/1999/xlink">
    <g id="Desktop" stroke="none" stroke-width="1" fill="none" fill-rule="evenodd">
        <g id="3">
            <g id="Group">
                <polygon id="Shape" fill="#FFFFFF" fill-rule="nonzero" points="46.6 14.3 32.3 0 0.7 0 0.7 59.3 46.7 59.3 46.7 14.3"></polygon>
                <polygon id="Shape" fill="#EDECE8" fill-rule="nonzero" points="32.3 0 32.3 14.3 46.6 14.3"></polygon>
                <path d="M23.7,22.5 L7.3,22.5 C6.7,22.5 6.3,22 6.3,21.5 C6.3,20.9 6.8,20.5 7.3,20.5 L23.7,20.5 C24.3,20.5 24.7,21 24.7,21.5 C24.7,22 24.2,22.5 23.7,22.5 Z" id="Shape" fill="#EDECE8" fill-rule="nonzero"></path>
                <path d="M23.7,26.5 L7.3,26.5 C6.7,26.5 6.3,26.1 6.3,25.5 C6.3,24.9 6.8,24.5 7.3,24.5 L23.7,24.5 C24.3,24.5 24.7,24.9 24.7,25.5 C24.7,26 24.2,26.5 23.7,26.5 Z" id="Shape" fill="#EDECE8" fill-rule="nonzero"></path>
                <path d="M23.7,34.5 L7.3,34.5 C6.7,34.5 6.3,34.1 6.3,33.5 C6.3,32.9 6.8,32.5 7.3,32.5 L23.7,32.5 C24.3,32.5 24.7,32.9 24.7,33.5 C24.7,34 24.2,34.5 23.7,34.5 Z" id="Shape" fill="#EDECE8" fill-rule="nonzero"></path>
                <path d="M23.7,30.5 L7.3,30.5 C6.7,30.5 6.3,30.1 6.3,29.5 C6.3,28.9 6.8,28.5 7.3,28.5 L23.7,28.5 C24.3,28.5 24.7,28.9 24.7,29.5 C24.7,30 24.2,30.5 23.7,30.5 Z" id="Shape" fill="#EDECE8" fill-rule="nonzero"></path>
                <path d="M23.7,42.4 L7.3,42.4 C6.7,42.4 6.3,42 6.3,41.4 C6.3,40.8 6.8,40.4 7.3,40.4 L23.7,40.4 C24.3,40.4 24.7,40.8 24.7,41.4 C24.7,41.9 24.2,42.4 23.7,42.4 Z" id="Shape" fill="#EDECE8" fill-rule="nonzero"></path>
                <path d="M23.7,38.4 L7.3,38.4 C6.7,38.4 6.3,38 6.3,37.4 C6.3,36.8 6.8,36.4 7.3,36.4 L23.7,36.4 C24.3,36.4 24.7,36.8 24.7,37.4 C24.7,38 24.2,38.4 23.7,38.4 Z" id="Shape" fill="#EDECE8" fill-rule="nonzero"></path>
                <path d="M34.3,37.6 C34,37.6 33.7,37.5 33.5,37.3 L31.1,35.1 C30.6,34.7 30.6,33.9 31,33.5 C31.4,33 32.2,33 32.6,33.4 L34.2,34.9 L39,30.7 C39.5,30.3 40.2,30.4 40.6,30.8 C41,31.3 40.9,32 40.5,32.4 L34.9,37.2 C34.8,37.5 34.5,37.5 34.3,37.6 Z" id="Shape" fill="#A5CE39" fill-rule="nonzero"></path>
                <rect id="Rectangle-path" fill="#A5CE39" fill-rule="nonzero" x="6.3" y="46" width="18.4" height="3.8"></rect>
                <g transform="translate(3.000000, 3.000000)" id="Shape">
                    <path d="M6.5,4 L6.5,2.2 C6.5,1.5 5.9,0.9 5.2,0.9 L4.9,0.9 L4.9,1.7 C4.9,2.8 4,3.7 2.9,3.7 L2.1,3.7 L2.1,4 C2.1,4.7 2.7,5.3 3.4,5.3 L5.2,5.3 C5.9,5.3 6.5,4.7 6.5,4" fill="#A6CE39"></path>
                    <path d="M4.2,1.7 L4.2,0.9 L3.4,0.9 C2.7,0.9 2.1,1.5 2.1,2.2 L2.1,3 L2.9,3 C3.6,3 4.2,2.4 4.2,1.7" fill="#086D38"></path>
                    <path d="M0.5,1.5 L0,1.5 L0,2 C0,2.6 0.4,3 0.9,3 L1.5,3 L1.5,2.4 C1.5,1.9 1.1,1.5 0.5,1.5" fill="#086D38"></path>
                </g>
            </g>
        </g>
    </g>
</svg>