<svg viewBox="0 0 50 67" version="1.1" xmlns="http://www.w3.org/2000/svg" xmlns:xlink="http://www.w3.org/1999/xlink" style="height: 85px;">
	    <g id="Desktop" stroke="none" stroke-width="1" fill="none" fill-rule="evenodd">
	        <g id="Homepage---first-loan" transform="translate(-1710.000000, -1407.000000)">
	            <g id="Group-4" transform="translate(1710.000000, 1407.000000)">
	                <path d="M43.1147697,10.2029921 L43.1147697,1.34 L6.75675676,1.34 L6.75675676,10.3296063 C6.75675676,19.3192126 11.6387514,27.4225197 19.2186905,31.9806299 C20.3749524,32.740315 20.3749524,34.3862992 19.2186905,35.0193701 C11.5102779,39.4508661 6.75675676,47.5541732 6.75675676,56.6703937 L6.75675676,65.66 L43.2432432,65.66 L43.2432432,56.6703937 C43.2432432,47.6807874 38.3612486,39.5774803 30.7813095,35.0193701 C29.6250476,34.259685 29.6250476,32.6137008 30.7813095,31.9806299 C38.3612486,27.4225197 43.1147697,19.1925984 43.1147697,10.2029921" id="Fill-5" fill="#1E7D48"></path>
	                <path d="M25.6756757,64.32 L44.5945946,64.32 L44.5945946,55.4828854 C44.5945946,46.6457708 39.5317853,38.6799209 31.6711077,34.1991304 C30.4720213,33.452332 30.4720213,31.8342688 31.6711077,31.2119368 C39.6650171,26.8556126 44.5945946,18.8897628 44.5945946,9.92818182 L44.5945946,1.34 L25.6756757,1.34 L25.6756757,64.32 Z" id="Fill-7" fill="#0F6C3A"></path>
	                <path d="M47.4025974,5.36 L2.5974026,5.36 C1.16883117,5.36 0,4.154 0,2.68 C0,1.206 1.16883117,0 2.5974026,0 L47.4025974,0 C48.8311688,0 50,1.206 50,2.68 C50,4.154 48.8311688,5.36 47.4025974,5.36" id="Fill-1" fill="#FFFFFF"></path>
	                <path d="M47.4025974,67 L2.5974026,67 C1.16883117,67 0,65.794 0,64.32 C0,62.846 1.16883117,61.64 2.5974026,61.64 L47.4025974,61.64 C48.8311688,61.64 50,62.846 50,64.32 C50,65.794 48.8311688,67 47.4025974,67" id="Fill-3" fill="#FFFFFF"></path>
	                <path d="M10.8108108,58.9685251 C10.8108108,59.7674101 10.1351351,60.3 9.45945946,60.3 C8.64864865,60.3 8.10810811,59.7674101 8.10810811,58.9685251 C8.10810811,58.1696402 8.78378378,57.6370503 9.45945946,57.6370503 C10.2702703,57.5039028 10.8108108,58.1696402 10.8108108,58.9685251" id="Fill-9" fill="#E7ECEC"></path>
	                <path d="M16.2162162,58.9685251 C16.2162162,59.7674101 15.6756757,60.3 14.8648649,60.3 C14.0540541,60.3 13.5135135,59.7674101 13.5135135,58.9685251 C13.5135135,58.1696402 14.1891892,57.6370503 14.8648649,57.6370503 C15.5405405,57.5039028 16.2162162,58.1696402 16.2162162,58.9685251" id="Fill-11" fill="#E7ECEC"></path>
	                <path d="M21.6216216,58.9685251 C21.6216216,59.7674101 21.0810811,60.3 20.2702703,60.3 C19.4594595,60.3 18.9189189,59.7674101 18.9189189,58.9685251 C18.9189189,58.1696402 19.4594595,57.6370503 20.2702703,57.6370503 C20.9459459,57.5039028 21.6216216,58.1696402 21.6216216,58.9685251" id="Fill-13" fill="#E7ECEC"></path>
	                <path d="M25.6756757,58.9685251 C25.6756757,59.7674101 25.1351351,60.3 24.3243243,60.3 C23.5135135,60.3 22.972973,59.7674101 22.972973,58.9685251 C22.972973,58.1696402 23.5135135,57.6370503 24.3243243,57.6370503 C25.1351351,57.5039028 25.6756757,58.1696402 25.6756757,58.9685251" id="Fill-15" fill="#E7ECEC"></path>
	                <path d="M31.0810811,58.9685251 C31.0810811,59.7674101 30.4054054,60.3 29.7297297,60.3 C29.0540541,60.3 28.3783784,59.7674101 28.3783784,58.9685251 C28.3783784,58.1696402 28.9189189,57.6370503 29.7297297,57.6370503 C30.5405405,57.5039028 31.0810811,58.1696402 31.0810811,58.9685251" id="Fill-17" fill="#E7ECEC"></path>
	                <path d="M36.4864865,58.9685251 C36.4864865,59.7674101 35.8108108,60.3 35.1351351,60.3 C34.4594595,60.3 33.7837838,59.7674101 33.7837838,58.9685251 C33.7837838,58.1696402 34.4594595,57.6370503 35.1351351,57.6370503 C35.9459459,57.5039028 36.4864865,58.1696402 36.4864865,58.9685251" id="Fill-19" fill="#E7ECEC"></path>
	                <path d="M41.8918919,58.9685251 C41.8918919,59.7674101 41.3513514,60.3 40.5405405,60.3 C39.7297297,60.3 39.1891892,59.7674101 39.1891892,58.9685251 C39.1891892,58.1696402 39.8648649,57.6370503 40.5405405,57.6370503 C41.3513514,57.5039028 41.8918919,58.1696402 41.8918919,58.9685251" id="Fill-21" fill="#E7ECEC"></path>
	                <path d="M13.5135135,56.28 C13.5135135,57.084 12.972973,57.62 12.1621622,57.62 C11.3513514,57.62 10.8108108,56.95 10.8108108,56.28 C10.8108108,55.61 11.3513514,54.94 12.1621622,54.94 C12.8378378,54.94 13.5135135,55.61 13.5135135,56.28" id="Fill-23" fill="#E7ECEC"></path>
	                <path d="M18.9189189,56.28 C18.9189189,57.084 18.2432432,57.62 17.5675676,57.62 C16.8918919,57.62 16.2162162,56.95 16.2162162,56.28 C16.2162162,55.61 16.7567568,54.94 17.5675676,54.94 C18.2432432,54.94 18.9189189,55.61 18.9189189,56.28" id="Fill-25" fill="#E7ECEC"></path>
	                <path d="M24.3243243,56.28 C24.3243243,57.084 23.6486486,57.62 22.972973,57.62 C22.2972973,57.62 21.6216216,56.95 21.6216216,56.28 C21.6216216,55.61 22.2972973,54.94 22.972973,54.94 C23.6486486,54.94 24.3243243,55.61 24.3243243,56.28" id="Fill-27" fill="#E7ECEC"></path>
	                <path d="M28.3783784,56.28 C28.3783784,57.084 27.8378378,57.62 27.027027,57.62 C26.2162162,57.62 25.6756757,56.95 25.6756757,56.28 C25.6756757,55.61 26.3513514,54.94 27.027027,54.94 C27.7027027,54.94 28.3783784,55.61 28.3783784,56.28" id="Fill-29" fill="#E7ECEC"></path>
	                <path d="M33.7837838,56.28 C33.7837838,57.084 33.2432432,57.62 32.4324324,57.62 C31.6216216,57.62 31.0810811,56.95 31.0810811,56.28 C31.0810811,55.61 31.6216216,54.94 32.4324324,54.94 C33.2432432,54.94 33.7837838,55.61 33.7837838,56.28" id="Fill-31" fill="#E7ECEC"></path>
	                <path d="M39.1891892,56.28 C39.1891892,57.084 38.6486486,57.62 37.8378378,57.62 C37.027027,57.62 36.4864865,56.95 36.4864865,56.28 C36.4864865,55.61 37.027027,54.94 37.8378378,54.94 C38.6486486,54.94 39.1891892,55.61 39.1891892,56.28" id="Fill-33" fill="#E7ECEC"></path>
	                <path d="M16.2162162,53.6 C16.2162162,54.404 15.6756757,54.94 14.8648649,54.94 C14.0540541,54.94 13.5135135,54.404 13.5135135,53.6 C13.5135135,52.796 14.1891892,52.26 14.8648649,52.26 C15.5405405,52.26 16.2162162,52.93 16.2162162,53.6" id="Fill-35" fill="#E7ECEC"></path>
	                <path d="M21.6216216,53.6 C21.6216216,54.404 21.0810811,54.94 20.2702703,54.94 C19.4594595,54.94 18.9189189,54.404 18.9189189,53.6 C18.9189189,52.796 19.4594595,52.26 20.2702703,52.26 C20.9459459,52.26 21.6216216,52.93 21.6216216,53.6" id="Fill-37" fill="#E7ECEC"></path>
	                <path d="M25.6756757,30.82 C25.6756757,31.624 25.1351351,32.16 24.3243243,32.16 C23.5135135,32.16 22.972973,31.624 22.972973,30.82 C22.972973,30.016 23.5135135,29.48 24.3243243,29.48 C25.1351351,29.48 25.6756757,30.15 25.6756757,30.82" id="Fill-39" fill="#A5CE39"></path>
	                <path d="M18.9189189,22.78 C18.9189189,23.584 18.2432432,24.12 17.5675676,24.12 C16.8918919,24.12 16.2162162,23.45 16.2162162,22.78 C16.2162162,22.11 16.7567568,21.44 17.5675676,21.44 C18.2432432,21.574 18.9189189,22.11 18.9189189,22.78" id="Fill-41" fill="#A5CE39"></path>
	                <path d="M24.3243243,22.78 C24.3243243,23.584 23.6486486,24.12 22.972973,24.12 C22.2972973,24.12 21.6216216,23.45 21.6216216,22.78 C21.6216216,22.11 22.2972973,21.44 22.972973,21.44 C23.6486486,21.574 24.3243243,22.11 24.3243243,22.78" id="Fill-43" fill="#A5CE39"></path>
	                <path d="M28.3783784,22.78 C28.3783784,23.584 27.8378378,24.12 27.027027,24.12 C26.2162162,24.12 25.6756757,23.45 25.6756757,22.78 C25.6756757,22.11 26.3513514,21.44 27.027027,21.44 C27.7027027,21.574 28.3783784,22.11 28.3783784,22.78" id="Fill-45" fill="#A5CE39"></path>
	                <path d="M33.7837838,22.78 C33.7837838,23.584 33.2432432,24.12 32.4324324,24.12 C31.6216216,24.12 31.0810811,23.45 31.0810811,22.78 C31.0810811,22.11 31.6216216,21.44 32.4324324,21.44 C33.2432432,21.574 33.7837838,22.11 33.7837838,22.78" id="Fill-47" fill="#A5CE39"></path>
	                <path d="M31.0810811,20.1 C31.0810811,20.904 30.4054054,21.44 29.7297297,21.44 C29.0540541,21.44 28.3783784,20.904 28.3783784,20.1 C28.3783784,19.296 28.9189189,18.76 29.7297297,18.76 C30.5405405,18.76 31.0810811,19.43 31.0810811,20.1" id="Fill-49" fill="#A5CE39"></path>
	                <path d="M33.7837838,17.42 C33.7837838,18.224 33.2432432,18.76 32.4324324,18.76 C31.6216216,18.76 31.0810811,18.224 31.0810811,17.42 C31.0810811,16.616 31.6216216,16.08 32.4324324,16.08 C33.2432432,16.08 33.7837838,16.616 33.7837838,17.42" id="Fill-51" fill="#A5CE39"></path>
	                <path d="M21.6216216,20.1 C21.6216216,20.904 21.0810811,21.44 20.2702703,21.44 C19.4594595,21.44 18.9189189,20.904 18.9189189,20.1 C18.9189189,19.296 19.4594595,18.76 20.2702703,18.76 C20.9459459,18.76 21.6216216,19.43 21.6216216,20.1" id="Fill-53" fill="#A5CE39"></path>
	                <path d="M25.6756757,20.1 C25.6756757,20.904 25.1351351,21.44 24.3243243,21.44 C23.5135135,21.44 22.972973,20.904 22.972973,20.1 C22.972973,19.296 23.5135135,18.76 24.3243243,18.76 C25.1351351,18.76 25.6756757,19.43 25.6756757,20.1" id="Fill-55" fill="#A5CE39"></path>
	                <path d="M18.9189189,17.42 C18.9189189,18.224 18.2432432,18.76 17.5675676,18.76 C16.8918919,18.76 16.2162162,18.224 16.2162162,17.42 C16.2162162,16.616 16.7567568,16.08 17.5675676,16.08 C18.2432432,16.08 18.9189189,16.616 18.9189189,17.42" id="Fill-57" fill="#A5CE39"></path>
	                <path d="M21.6216216,25.46 C21.6216216,26.264 21.0810811,26.8 20.2702703,26.8 C19.4594595,26.8 18.9189189,26.264 18.9189189,25.46 C18.9189189,24.656 19.4594595,24.12 20.2702703,24.12 C20.9459459,24.12 21.6216216,24.656 21.6216216,25.46" id="Fill-59" fill="#A5CE39"></path>
	                <path d="M24.3243243,28.14 C24.3243243,28.944 23.6486486,29.48 22.972973,29.48 C22.2972973,29.48 21.6216216,28.81 21.6216216,28.14 C21.6216216,27.336 22.2972973,26.8 22.972973,26.8 C23.6486486,26.8 24.3243243,27.336 24.3243243,28.14" id="Fill-61" fill="#A5CE39"></path>
	                <path d="M28.3783784,28.14 C28.3783784,28.944 27.8378378,29.48 27.027027,29.48 C26.2162162,29.48 25.6756757,28.81 25.6756757,28.14 C25.6756757,27.336 26.3513514,26.8 27.027027,26.8 C27.7027027,26.8 28.3783784,27.336 28.3783784,28.14" id="Fill-63" fill="#A5CE39"></path>
	                <path d="M25.6756757,25.46 C25.6756757,26.264 25.1351351,26.8 24.3243243,26.8 C23.5135135,26.8 22.972973,26.264 22.972973,25.46 C22.972973,24.656 23.5135135,24.12 24.3243243,24.12 C25.1351351,24.12 25.6756757,24.656 25.6756757,25.46" id="Fill-65" fill="#A5CE39"></path>
	                <path d="M31.0810811,25.46 C31.0810811,26.264 30.4054054,26.8 29.7297297,26.8 C29.0540541,26.8 28.3783784,26.264 28.3783784,25.46 C28.3783784,24.656 28.9189189,24.12 29.7297297,24.12 C30.5405405,24.12 31.0810811,24.656 31.0810811,25.46" id="Fill-67" fill="#A5CE39"></path>
	                <path d="M25.6756757,36.1885251 C25.6756757,36.9874101 25.1351351,37.52 24.3243243,37.52 C23.5135135,37.52 22.972973,36.8542626 22.972973,36.1885251 C22.972973,35.5227877 23.5135135,34.8570503 24.3243243,34.8570503 C25.1351351,34.7239028 25.6756757,35.3896402 25.6756757,36.1885251" id="Fill-69" fill="#E7ECEC"></path>
	                <path d="M25.6756757,40.2 C25.6756757,41.004 25.1351351,41.54 24.3243243,41.54 C23.5135135,41.54 22.972973,41.004 22.972973,40.2 C22.972973,39.396 23.5135135,38.86 24.3243243,38.86 C25.1351351,38.86 25.6756757,39.396 25.6756757,40.2" id="Fill-71" fill="#E7ECEC"></path>
	                <path d="M25.6756757,45.56 C25.6756757,46.364 25.1351351,46.9 24.3243243,46.9 C23.5135135,46.9 22.972973,46.23 22.972973,45.56 C22.972973,44.89 23.5135135,44.22 24.3243243,44.22 C25.1351351,44.22 25.6756757,44.756 25.6756757,45.56" id="Fill-73" fill="#E7ECEC"></path>
	                <path d="M25.6756757,50.92 C25.6756757,51.724 25.1351351,52.26 24.3243243,52.26 C23.5135135,52.26 22.972973,51.724 22.972973,50.92 C22.972973,50.116 23.5135135,49.58 24.3243243,49.58 C25.1351351,49.58 25.6756757,50.116 25.6756757,50.92" id="Fill-75" fill="#E7ECEC"></path>
	                <path d="M31.0810811,53.6 C31.0810811,54.404 30.4054054,54.94 29.7297297,54.94 C29.0540541,54.94 28.3783784,54.404 28.3783784,53.6 C28.3783784,52.796 28.9189189,52.26 29.7297297,52.26 C30.5405405,52.26 31.0810811,52.93 31.0810811,53.6" id="Fill-79" fill="#E7ECEC"></path>
	                <path d="M36.4864865,53.6 C36.4864865,54.404 35.8108108,54.94 35.1351351,54.94 C34.4594595,54.94 33.7837838,54.404 33.7837838,53.6 C33.7837838,52.796 34.4594595,52.26 35.1351351,52.26 C35.9459459,52.26 36.4864865,52.93 36.4864865,53.6" id="Fill-81" fill="#E7ECEC"></path>
	            </g>
	        </g>
	    </g>
</svg>