<svg viewBox="0 0 55 66" version="1.1" xmlns="http://www.w3.org/2000/svg" xmlns:xlink="http://www.w3.org/1999/xlink">    
    <defs>
        <polygon id="path-1" points="38.8722756 0.489727505 39.6250922 1.06377918 39.6250922 22.7157022 0.384790397 22.7157022 18.6921034 0.489727505 38.8722756 0.489727505"></polygon>
        <polygon id="path-3" points="42.7098184 24.669489 0.34508543 24.669489 0.34508543 0.631091208 42.7098184 0.631091208 42.7098184 24.669489"></polygon>
        <polygon id="path-5" points="46.9334632 25.6463824 0.579828062 25.6463824 0.579828062 0.669496376 46.9334632 0.669496376"></polygon>
        <polygon id="path-7" points="0.266713757 22.7157022 0.266713757 0.340656394 41.2182538 0.340656394 41.2182538 22.7157022"></polygon>
    </defs>
    <g id="Desktop" stroke="none" stroke-width="1" fill="none" fill-rule="evenodd">
        <g id="Group-11" transform="translate(-1.000000, 0.000000)">
            <path d="M36.2614132,19.3261324 L36.2614132,21.6996215 L49.0713219,21.6996215 C51.1729476,21.6996215 52.8742636,23.2819476 52.8742636,25.2598553 L52.8742636,30.1057289 C51.8734895,29.3145659 50.4724057,28.820089 49.0713219,28.820089 L8.03958301,28.820089 C5.93795736,28.820089 4.23664136,27.2377629 4.23664136,25.2598553 C4.23664136,23.2819476 5.93795736,21.6996215 8.03958301,21.6996215 L22.0504207,21.6996215 L22.0504207,19.3261324 L8.03958301,19.3261324 C4.53687359,19.3261324 1.63462865,21.9963077 1.63462865,25.2598553 L1.63462865,59.8732387 C1.63462865,63.2356816 4.53687359,65.8069615 8.03958301,65.8069615 L49.0713219,65.8069615 C52.5740314,65.8069615 55.4762763,63.1367862 55.4762763,59.8732387 L55.4762763,25.2598553 C55.3761989,21.9963077 52.5740314,19.3261324 49.0713219,19.3261324 L36.2614132,19.3261324 Z" id="Fill-1" fill="#106C3A"></path>
            <path d="M55.3761989,53.9395158 L40.0643549,53.9395158 C36.5616454,53.9395158 33.6594005,51.2693405 33.6594005,48.0057929 C33.6594005,44.64335 36.5616454,42.0720701 40.0643549,42.0720701 L55.4762763,42.0720701 L55.4762763,53.9395158 L55.3761989,53.9395158 Z" id="Fill-3" fill="#FFFFFF"></path>
            <path d="M40.4646645,48.0057929 C40.4646645,48.6980606 39.8642,49.1925375 39.1636581,49.1925375 C38.4631163,49.1925375 37.8626518,48.5991652 37.8626518,48.0057929 C37.8626518,47.3135253 38.4631163,46.8190484 39.1636581,46.8190484 C39.8642,46.8190484 40.4646645,47.3135253 40.4646645,48.0057929 M35.3607165,48.0057929 C35.3607165,49.9837005 37.0620325,51.5660266 39.1636581,51.5660266 C41.2652838,51.5660266 42.9665998,49.9837005 42.9665998,48.0057929 C42.9665998,46.0278853 41.2652838,44.3466638 39.1636581,44.3466638 C37.0620325,44.3466638 35.3607165,46.0278853 35.3607165,48.0057929" id="Fill-5" fill="#106C3A"></path>
            <path d="M30.8572329,28.9189844 L8.03958301,28.9189844 C5.93795736,28.9189844 4.23664136,27.3366583 4.23664136,25.3587506 C4.23664136,23.380843 5.93795736,21.7985169 8.03958301,21.7985169 L13.0434536,21.7985169 L15.7455437,19.4250278 L8.03958301,19.4250278 C4.53687359,19.4250278 1.63462865,22.0952031 1.63462865,25.3587506 L1.63462865,59.972134 C1.63462865,63.334577 4.53687359,65.9058569 8.03958301,65.9058569 L30.8572329,65.9058569 L30.8572329,28.9189844 Z" id="Fill-7" fill="#1E7D48"></path>
            <g id="Group-12" transform="translate(0.000000, 3.409718)">
                <mask id="mask-2" fill="white">
                    <use xlink:href="#path-1"></use>
                </mask>
                <g id="Clip-11"></g>
                <path d="M19.7588346,0.582912291 L39.0267822,10.2004278 C39.6288422,10.4319515 39.7496602,11.1274996 39.5090393,11.7067974 L21.4452115,46.5848225 C21.2035753,47.1641203 20.4817126,47.395644 19.9994555,47.0478699 L0.610689773,37.4303544 C0.00862986379,37.1988307 -0.111172951,36.5042595 0.129447957,35.9239848 L18.3140939,0.930686342 C18.5547148,0.582912291 19.2775928,0.351388556 19.7588346,0.582912291" id="Fill-10" fill="#7B9314" mask="url(#mask-2)"></path>
            </g>
            <g id="Group-26" transform="translate(3.500000, 0.000000)">
                <path d="M27.9376103,22.9803426 L32.2109158,14.637673 C32.3300079,14.4061493 32.2109158,14.0583752 31.9737324,13.9421249 L15.8292443,5.83097901 C15.5920608,5.7147287 15.2357852,5.83097901 15.1176939,6.06250275 L10.8433876,14.4061493 C10.7252962,14.637673 10.8433876,14.9854471 11.0815718,15.1007205 C11.3187553,15.2169708 11.6750309,15.1007205 11.7931222,14.8691967 L15.8292443,7.1058249 L30.9049056,14.637673 L26.8687836,22.4010449 C26.7506922,22.6325686 26.8687836,22.9803426 27.1069678,23.096593 C27.4632434,23.3281167 27.8185182,23.2118664 27.9376103,22.9803426" id="Fill-13" fill="#FFFFFF"></path>
                <g id="Group-17" transform="translate(0.000000, 0.976893)">
                    <mask id="mask-4" fill="white">
                        <use xlink:href="#path-3"></use>
                    </mask>
                    <g id="Clip-16"></g>
                    <path d="M24.138972,0.798610354 L42.1819286,12.1540192 C42.6572963,12.5017933 42.8944798,13.1973414 42.5382042,13.6603889 L20.4591256,48.7699376 C20.10285,49.233962 19.3902988,49.4654857 18.9159319,49.1177117 L0.872975265,37.7623028 C0.397607558,37.4145288 0.160424091,36.7199575 0.516699678,36.2559332 L22.4766862,1.1463844 C22.8329618,0.68236004 23.545513,0.450836304 24.138972,0.798610354" id="Fill-15" fill="#92B524" mask="url(#mask-4)"></path>
                </g>
                <path d="M39.6896007,14.5216181 C39.8086929,14.2900943 39.8086929,13.9423203 39.4524173,13.7107966 L24.2576638,4.09328103 C24.0204803,3.97703072 23.6642048,3.97703072 23.4270213,4.32480477 L18.3220725,12.2044269 C18.2039812,12.4359507 18.2039812,12.7837247 18.5602568,13.0152485 C18.7974402,13.1314988 19.1537158,13.1314988 19.3908993,12.7837247 L24.2576638,5.36715003 L38.5026826,14.4053678 L33.516826,21.7056921 C33.3977339,21.9372159 33.3977339,22.2849899 33.7540094,22.5165137 C33.9911929,22.632764 34.3474685,22.632764 34.5856527,22.2849899 L39.6896007,14.5216181 Z" id="Fill-18" fill="#FFFFFF"></path>
                <g id="Group-22" transform="translate(4.003096, 0.000000)">
                    <mask id="mask-6" fill="white">
                        <use xlink:href="#path-5"></use>
                    </mask>
                    <g id="Clip-21"></g>
                    <path d="M46.4882597,14.1739417 C46.9636274,14.5217158 47.0827195,15.2172639 46.7264439,15.7965616 L19.7795999,48.9357164 C19.4233244,49.3997408 18.711774,49.5159911 18.1183149,49.1682171 L1.02409216,35.8424142 C0.549725224,35.4946402 0.430633104,34.7990921 0.786908691,34.2197943 L27.7327519,1.08063948 C28.2081196,0.616615114 28.9206708,0.501341693 29.3950377,0.964389164 L46.4882597,14.1739417 Z" id="Fill-20" fill="#A5CE38" mask="url(#mask-6)"></path>
                </g>
                <g id="Group-25" transform="translate(7.005419, 2.930680)">
                    <mask id="mask-8" fill="white">
                        <use xlink:href="#path-7"></use>
                    </mask>
                    <g id="Clip-24"></g>
                    <path d="M30.5474291,12.0543761 C31.021796,11.4750783 30.9037047,10.7795302 30.3102456,10.3164827 C29.7167866,9.85245838 29.0042354,9.96870869 28.5298685,10.5480065 C28.0545007,11.1273043 28.1735929,11.8228524 28.7670519,12.2858998 C29.360511,12.6336739 30.0730621,12.5174236 30.5474291,12.0543761 M11.0793701,32.1002287 C10.6050032,32.6795264 10.7230945,33.3750745 11.3165536,33.8390989 C11.9110134,34.3021464 12.6225638,34.1858961 13.0979315,33.6065983 C13.5722985,33.0273005 13.4532063,32.3327293 12.8597473,31.8687049 C12.2662882,31.5209309 11.4356457,31.6371812 11.0793701,32.1002287 M40.9935093,11.8228524 L26.3922149,0.467443492 C26.1550315,0.234942863 25.6806645,0.351193177 25.5615724,0.582716913 L21.1691748,6.02889761 C20.9319913,6.26042135 21.0510835,6.72444572 21.2882669,6.83971914 C21.5254504,7.07221977 22.0008181,6.95596945 22.1189094,6.72444572 L26.1550315,1.8575628 L39.6874991,12.4021502 L35.6513771,17.2690331 C35.4141936,17.5005568 35.5332857,17.9636043 35.7704692,18.0798546 C36.0076527,18.3113783 36.4830204,18.1961049 36.6011117,17.9636043 L40.9935093,12.5174236 C41.3497849,12.4021502 41.2306928,12.0543761 40.9935093,11.8228524 M20.3385323,37.1986353 C20.1013488,36.9671116 19.6259811,37.0833619 19.5078898,37.3148856 L15.4717677,42.1817685 L1.82020797,31.6371812 L5.85633,26.7702983 C6.09351346,26.5387745 5.97542212,26.0747502 5.73823865,25.9594768 C5.50005441,25.727953 5.02568748,25.8432264 4.90659536,26.0747502 L0.396106397,31.4056575 C0.15892293,31.6371812 0.277014276,32.1002287 0.515198517,32.216479 L15.1154922,43.5718878 C15.3526756,43.8034116 15.8280433,43.6881382 15.9461347,43.4566144 L20.3385323,38.0104337 C20.6948079,37.8941834 20.5757158,37.4311359 20.3385323,37.1986353 M14.2848496,17.0365324 C11.4356457,20.513296 12.0291048,25.6117027 15.5908599,28.3929182 C19.1516142,31.1731568 24.3746543,30.593859 27.2238582,27.1180723 C30.0730621,23.6413087 29.4786023,18.5429021 25.917848,15.7626634 C22.3570937,12.8651976 17.1340536,13.5607457 14.2848496,17.0365324" id="Fill-23" fill="#FFFFFF" mask="url(#mask-8)"></path>
                </g>
            </g>
        </g>
    </g>
</svg>